# xmcd
#
# Track frame offsets: 
#        150
#        20269
#        38511
#        52127
#        62585
#        77449
#        95571
#        113926
#        126251
#        140768
#        153371
#        170020
#
# Disc length: 2452 seconds
#
# Revision: 0
# Processed by: cddbd v1.5.2PL0 Copyright (c) Steve Scherf et al.
# Submitted via: ExactAudioCopy v0.95b4
#
DISCID=9d09920c
DTITLE=Michael Hirte - Der Mann mit der Mundharmonika
DYEAR=2008
DGENRE=Blues
TTITLE0=Ave Maria
TTITLE1=You raise me up
TTITLE2=Aber Haidschi Bumbaidschi
TTITLE3=Morning has broke
TTITLE4=Amazing graze
TTITLE5=We have a dream
TTITLE6=Time to say goodbye
TTITLE7=Guten Abend, gute Nacht
TTITLE8=Mull of Kintyre
TTITLE9=Brigt eyes
TTITLE10=Bridge over troubeld water
TTITLE11=Stille Nacht
EXTD=
EXTT0=
EXTT1=
EXTT2=
EXTT3=
EXTT4=
EXTT5=
EXTT6=
EXTT7=
EXTT8=
EXTT9=
EXTT10=
EXTT11=
PLAYORDER=
